<svg width="525" height="160" viewBox="0 0 525 160" fill="none" xmlns="http://www.w3.org/2000/svg">
<path d="M126.084 21H127.842V14.6914H135.322V21H137.1V6.85938H135.322V13.1484H127.842V6.85938H126.084V21ZM139.99 21H141.67V10.3945H139.99V21ZM139.658 7.52344C139.648 8.13867 140.186 8.63672 140.83 8.63672C141.475 8.63672 142.012 8.13867 142.021 7.52344C142.012 6.89844 141.475 6.40039 140.83 6.41016C140.186 6.40039 139.648 6.89844 139.658 7.52344ZM148.643 25.1992C151.23 25.1992 153.242 24.0273 153.252 21.293V10.3945H151.611V12.0742H151.475C151.094 11.5078 150.43 10.2578 148.369 10.2578C145.703 10.2578 143.838 12.2891 143.838 15.5508C143.838 18.8906 145.771 20.834 148.35 20.8438C150.4 20.834 151.074 19.6328 151.436 19.0469H151.572V21.1953C151.572 22.9434 150.459 23.7344 148.643 23.7344C147.139 23.7344 146.133 23.1973 145.908 22.1133H144.15C144.336 24.0762 146.074 25.1992 148.643 25.1992ZM145.537 15.6094C145.537 13.4707 146.543 11.7617 148.584 11.7617C150.557 11.7617 151.602 13.334 151.611 15.6094C151.602 17.9434 150.527 19.3398 148.584 19.3398C146.572 19.3398 145.537 17.8066 145.537 15.6094ZM157.607 14.6328C157.607 12.7969 158.779 11.7617 160.361 11.7617C161.885 11.7617 162.803 12.709 162.803 14.3789V21H164.482V14.2617C164.482 11.5371 163.037 10.2578 160.869 10.2578C159.189 10.2578 158.242 10.9609 157.744 12.0547H157.607V6.85938H155.928V21H157.607V14.6328ZM173.252 14.1836H167.061V15.7266H173.252V14.1836ZM181.162 16.5664L183.252 19.3008C182.783 19.4668 182.275 19.5547 181.748 19.5547C179.189 19.5449 177.207 17.5723 177.197 13.9297C177.207 10.2773 179.189 8.30469 181.748 8.30469C184.307 8.30469 186.289 10.2773 186.299 13.9297C186.289 16.0391 185.625 17.5918 184.57 18.5195L183.076 16.5664H181.162ZM175.498 13.9297C175.488 18.4023 178.115 21.1953 181.748 21.1953C182.666 21.1953 183.525 21.0195 184.287 20.6777L185.518 22.3281H187.432L185.586 19.8672C187.09 18.627 188.008 16.5762 187.998 13.9297C188.008 9.45703 185.371 6.66406 181.748 6.66406C178.115 6.66406 175.488 9.45703 175.498 13.9297ZM197.061 16.6445C197.051 18.627 195.547 19.5254 194.346 19.5156C192.988 19.5254 192.041 18.5391 192.041 17.0156V10.3945H190.361V17.1328C190.352 19.8281 191.787 21.1367 193.799 21.1367C195.391 21.1367 196.445 20.2773 196.943 19.2031H197.061V21H198.721V10.3945H197.061V16.6445ZM200.908 17.9922C200.908 20.0625 202.51 21.2441 204.521 21.2539C206.367 21.2441 207.334 20.2676 207.686 19.5547H207.764V21H209.424V14.0078C209.434 10.668 206.826 10.2578 205.439 10.2578C203.096 10.2578 201.436 11.4395 201.221 13.1484H202.979C203.213 12.3379 204.023 11.7227 205.361 11.7227C206.963 11.7227 207.764 12.5039 207.764 13.8516V14.7109C207.285 14.7207 205.576 14.8184 204.893 14.8672C203.057 15.0039 200.908 15.5605 200.908 17.9922ZM202.588 18.0703C202.598 16.9082 203.564 16.3711 205.088 16.2734C205.596 16.2441 207.266 16.1172 207.764 16.0879V17.1523C207.764 18.4902 206.709 19.7598 204.814 19.75C203.525 19.7598 202.598 19.1934 202.588 18.0703ZM213.799 6.85938H212.119V21H213.799V6.85938ZM216.475 21H218.154V10.3945H216.475V21ZM216.143 7.52344C216.133 8.13867 216.67 8.63672 217.314 8.63672C217.959 8.63672 218.496 8.13867 218.506 7.52344C218.496 6.89844 217.959 6.40039 217.314 6.41016C216.67 6.40039 216.133 6.89844 216.143 7.52344ZM225.459 10.3945H223.232V7.85547H221.533V10.3945H219.932V11.8008H221.533V18.3828C221.543 20.2578 223.027 21.1367 224.443 21.1367C224.941 21.1367 225.352 21.0977 225.615 21.0586V19.4961C225.371 19.5059 224.922 19.5352 224.619 19.5352C223.906 19.5352 223.223 19.3105 223.232 17.9531V11.8008H225.459V10.3945ZM228.701 24.9844C230.205 24.9746 231.24 24.1934 231.865 22.5234L236.357 10.3945H234.521L231.631 18.8125H231.514L228.623 10.3945H226.787L230.713 21.0781L230.4 21.8789C229.844 23.4316 229.268 23.4707 228.584 23.4805C228.32 23.4707 227.939 23.4609 227.764 23.4414V24.9453C227.979 24.9648 228.34 24.9746 228.701 24.9844ZM243.447 21H248.584C251.924 21 253.32 19.3691 253.33 17.25C253.32 15.0039 251.777 13.793 250.459 13.7148V13.5781C251.689 13.2363 252.773 12.4258 252.764 10.6094C252.773 8.5293 251.377 6.85938 248.408 6.85938H243.447V21ZM245.205 19.4375V14.5742H248.662C250.479 14.5742 251.641 15.7949 251.631 17.2305C251.641 18.4609 250.781 19.4375 248.564 19.4375H245.205ZM245.205 13.0508V8.42188H248.408C250.254 8.42188 251.084 9.39844 251.084 10.6289C251.084 12.1035 249.883 13.0605 248.35 13.0508H245.205ZM257.295 6.85938H255.615V21H257.295V6.85938ZM264.307 21.2148C267.188 21.2246 269.121 19.0371 269.111 15.7461C269.121 12.4355 267.188 10.2578 264.307 10.2578C261.416 10.2578 259.463 12.4355 259.463 15.7461C259.463 19.0371 261.416 21.2246 264.307 21.2148ZM261.143 15.7461C261.152 13.6367 262.148 11.7422 264.307 11.7422C266.445 11.7422 267.432 13.6367 267.432 15.7461C267.432 17.8652 266.445 19.7305 264.307 19.7305C262.148 19.7305 261.152 17.8652 261.143 15.7461ZM275.615 25.1992C278.203 25.1992 280.215 24.0273 280.225 21.293V10.3945H278.584V12.0742H278.447C278.066 11.5078 277.402 10.2578 275.342 10.2578C272.676 10.2578 270.811 12.2891 270.811 15.5508C270.811 18.8906 272.744 20.834 275.322 20.8438C277.373 20.834 278.047 19.6328 278.408 19.0469H278.545V21.1953C278.545 22.9434 277.432 23.7344 275.615 23.7344C274.111 23.7344 273.105 23.1973 272.881 22.1133H271.123C271.309 24.0762 273.047 25.1992 275.615 25.1992ZM272.51 15.6094C272.51 13.4707 273.516 11.7617 275.557 11.7617C277.529 11.7617 278.574 13.334 278.584 15.6094C278.574 17.9434 277.5 19.3398 275.557 19.3398C273.545 19.3398 272.51 17.8066 272.51 15.6094ZM287.197 25.1992C289.785 25.1992 291.797 24.0273 291.807 21.293V10.3945H290.166V12.0742H290.029C289.648 11.5078 288.984 10.2578 286.924 10.2578C284.258 10.2578 282.393 12.2891 282.393 15.5508C282.393 18.8906 284.326 20.834 286.904 20.8438C288.955 20.834 289.629 19.6328 289.99 19.0469H290.127V21.1953C290.127 22.9434 289.014 23.7344 287.197 23.7344C285.693 23.7344 284.688 23.1973 284.463 22.1133H282.705C282.891 24.0762 284.629 25.1992 287.197 25.1992ZM284.092 15.6094C284.092 13.4707 285.098 11.7617 287.139 11.7617C289.111 11.7617 290.156 13.334 290.166 15.6094C290.156 17.9434 289.082 19.3398 287.139 19.3398C285.127 19.3398 284.092 17.8066 284.092 15.6094ZM294.482 21H296.162V10.3945H294.482V21ZM294.15 7.52344C294.141 8.13867 294.678 8.63672 295.322 8.63672C295.967 8.63672 296.504 8.13867 296.514 7.52344C296.504 6.89844 295.967 6.40039 295.322 6.41016C294.678 6.40039 294.141 6.89844 294.15 7.52344ZM300.518 14.6328C300.518 12.7969 301.65 11.7617 303.193 11.7617C304.697 11.7617 305.596 12.7383 305.596 14.3789V21H307.275V14.2617C307.285 11.5664 305.85 10.2578 303.701 10.2578C302.09 10.2578 301.094 10.9707 300.596 12.0547H300.459V10.3945H298.838V21H300.518V14.6328ZM314.268 25.1992C316.855 25.1992 318.867 24.0273 318.877 21.293V10.3945H317.236V12.0742H317.1C316.719 11.5078 316.055 10.2578 313.994 10.2578C311.328 10.2578 309.463 12.2891 309.463 15.5508C309.463 18.8906 311.396 20.834 313.975 20.8438C316.025 20.834 316.699 19.6328 317.061 19.0469H317.197V21.1953C317.197 22.9434 316.084 23.7344 314.268 23.7344C312.764 23.7344 311.758 23.1973 311.533 22.1133H309.775C309.961 24.0762 311.699 25.1992 314.268 25.1992ZM311.162 15.6094C311.162 13.4707 312.168 11.7617 314.209 11.7617C316.182 11.7617 317.227 13.334 317.236 15.6094C317.227 17.9434 316.152 19.3398 314.209 19.3398C312.197 19.3398 311.162 17.8066 311.162 15.6094ZM326.787 21H328.545V15.8633H331.611C334.902 15.8633 336.416 13.8613 336.416 11.3516C336.416 8.83203 334.902 6.85938 331.592 6.85938H326.787V21ZM328.545 14.3008V8.42188H331.514C333.789 8.42188 334.668 9.66211 334.678 11.3516C334.668 13.0312 333.789 14.3008 331.533 14.3008H328.545ZM340.342 6.85938H338.662V21H340.342V6.85938ZM342.51 17.9922C342.51 20.0625 344.111 21.2441 346.123 21.2539C347.969 21.2441 348.936 20.2676 349.287 19.5547H349.365V21H351.025V14.0078C351.035 10.668 348.428 10.2578 347.041 10.2578C344.697 10.2578 343.037 11.4395 342.822 13.1484H344.58C344.814 12.3379 345.625 11.7227 346.963 11.7227C348.564 11.7227 349.365 12.5039 349.365 13.8516V14.7109C348.887 14.7207 347.178 14.8184 346.494 14.8672C344.658 15.0039 342.51 15.5605 342.51 17.9922ZM344.189 18.0703C344.199 16.9082 345.166 16.3711 346.689 16.2734C347.197 16.2441 348.867 16.1172 349.365 16.0879V17.1523C349.365 18.4902 348.311 19.7598 346.416 19.75C345.127 19.7598 344.199 19.1934 344.189 18.0703ZM358.35 10.3945H356.123V7.85547H354.424V10.3945H352.822V11.8008H354.424V18.3828C354.434 20.2578 355.918 21.1367 357.334 21.1367C357.832 21.1367 358.242 21.0977 358.506 21.0586V19.4961C358.262 19.5059 357.812 19.5352 357.51 19.5352C356.797 19.5352 356.113 19.3105 356.123 17.9531V11.8008H358.35V10.3945ZM365.264 10.3945H362.92V9.32031C362.91 8.22656 363.438 7.73828 364.619 7.73828C364.834 7.73828 365.137 7.75781 365.498 7.81641V6.3125C365.146 6.24414 364.658 6.19531 364.248 6.19531C362.373 6.19531 361.23 7.23047 361.221 8.94922V10.3945H359.521V11.8008H361.221V21H362.92V11.8008H365.264V10.3945ZM371.143 21.2148C374.023 21.2246 375.957 19.0371 375.947 15.7461C375.957 12.4355 374.023 10.2578 371.143 10.2578C368.252 10.2578 366.299 12.4355 366.299 15.7461C366.299 19.0371 368.252 21.2246 371.143 21.2148ZM367.979 15.7461C367.988 13.6367 368.984 11.7422 371.143 11.7422C373.281 11.7422 374.268 13.6367 374.268 15.7461C374.268 17.8652 373.281 19.7305 371.143 19.7305C368.984 19.7305 367.988 17.8652 367.979 15.7461ZM378.154 21H379.834V14.3203C379.834 12.8945 380.967 11.8398 382.49 11.8398C382.93 11.8398 383.379 11.9277 383.506 11.957V10.2578C383.311 10.2383 382.881 10.2285 382.627 10.2188C381.377 10.2285 380.273 10.9414 379.893 12.0156H379.775V10.3945H378.154V21ZM385.146 21H386.826V14.3789C386.826 12.8359 387.939 11.7617 389.209 11.7617C390.43 11.7617 391.289 12.5625 391.279 13.7539V21H392.979V14.1055C392.988 12.7578 393.828 11.7617 395.303 11.7617C396.465 11.7617 397.441 12.3672 397.451 13.9297V21H399.131V13.9102C399.131 11.4102 397.773 10.2578 395.889 10.2578C394.365 10.2578 393.242 10.9609 392.705 12.0547H392.588C392.09 10.9219 391.143 10.2578 389.756 10.2578C388.369 10.2578 387.344 10.9219 386.904 12.0547H386.768V10.3945H385.146V21Z" fill="black" fill-opacity="0.7"/>
<g clip-path="url(#clip0_1733_39613)">
<path d="M394.459 86.211C391.762 86.0431 389.163 85.1407 386.942 83.6016C384.722 82.0625 382.965 79.9454 381.862 77.4795C381.107 75.633 380.763 73.6447 380.852 71.652C380.941 69.6593 381.461 67.7096 382.377 65.9376C386.132 58.8151 396.519 56.0798 403.976 59.405L404.298 59.5445C407.547 61.1995 410.163 63.8751 411.744 67.1604C414.308 72.631 413.053 79.11 409.984 83.4864C407.812 86.4226 404.828 88.6597 401.401 89.9224C397.059 91.7683 392.296 92.3951 387.624 91.7353C389.692 91.2192 391.56 90.0989 392.989 88.5173C393.581 87.8186 394.075 87.0427 394.459 86.211V86.211Z" fill="#8EF3BF"/>
<path d="M-0.00585938 105.2V104.986C-0.00585938 83.0924 16.8396 65.9189 39.5864 65.9189C54.9298 65.9189 64.801 72.355 71.4534 81.5906L55.7881 93.7118C51.4963 88.3484 46.5607 84.9159 39.3718 84.9159C28.8568 84.9159 21.4534 93.819 21.4534 104.76V104.975C21.4534 116.238 28.8568 125.034 39.3718 125.034C47.2044 125.034 51.8182 121.387 56.3246 115.916L71.9899 127.072C64.9083 136.833 55.3589 144.02 38.728 144.02C17.2688 144.02 -0.00585938 127.608 -0.00585938 105.2Z" fill="black"/>
<path d="M76.2832 113.771V113.557C76.2832 97.0376 89.8025 83.2002 108.472 83.2002C127.142 83.2002 140.446 96.8231 140.446 113.342V113.557C140.446 130.076 126.927 143.913 108.257 143.913C89.5879 143.913 76.2832 130.28 76.2832 113.771ZM120.597 113.771V113.557C120.597 106.477 115.446 100.47 108.257 100.47C100.854 100.47 96.133 106.37 96.133 113.342V113.557C96.133 120.636 101.283 126.643 108.472 126.643C115.875 126.643 120.597 120.733 120.597 113.771V113.771Z" fill="black"/>
<path d="M286.682 125.888V125.673C286.682 113.659 295.802 107.438 309.428 107.438C314.168 107.442 318.877 108.202 323.377 109.691V108.725C323.377 102.718 319.622 99.2857 311.789 99.2857C306.298 99.2741 300.861 100.369 295.802 102.504L291.617 88.13C299.054 85.0207 307.055 83.4867 315.115 83.6248C325.523 83.6248 332.604 86.0919 337.218 90.7044C341.617 94.995 343.441 101.002 343.441 109.154V142.514H323.27V136.507C321.135 138.9 318.5 140.795 315.552 142.057C312.604 143.319 309.415 143.918 306.21 143.812C295.158 143.812 286.682 137.473 286.682 125.888ZM323.592 121.49V118.808C321.065 117.807 318.37 117.298 315.652 117.307C309.75 117.307 306.317 120.203 306.317 124.493V124.708C306.317 128.677 309.321 131.037 313.506 131.037C319.407 131.037 323.592 127.282 323.592 121.49V121.49Z" fill="black"/>
<path d="M354.271 64.1924H374.658V142.497H354.271V64.1924Z" fill="black"/>
<path d="M386.484 99.0889H406.871V142.521H386.484V99.0889Z" fill="black"/>
<path d="M421.748 124.51V100.911H414.881V84.4885H421.748V69.8037H442.134V84.4885H455.653V100.911H442.145V120.541C442.145 124.617 443.969 126.333 447.724 126.333C450.412 126.279 453.052 125.619 455.45 124.403V140.385C451.087 142.676 446.213 143.82 441.286 143.711C429.055 143.7 421.748 138.336 421.748 124.51Z" fill="black"/>
<path d="M462.971 154.954L469.313 140.687C472.531 142.618 475.965 143.798 478.218 143.798C479.146 143.874 480.076 143.694 480.909 143.278C481.741 142.862 482.444 142.226 482.939 141.438L460.182 84.4795H481.544L493.132 119.448L504.076 84.4795H524.999L503.755 141.116C498.712 154.632 493.24 159.995 481.652 159.995C475.091 159.975 468.651 158.237 462.971 154.954V154.954Z" fill="black"/>
<path d="M242.481 143.596C238.309 143.652 234.188 142.676 230.486 140.754C226.807 138.751 223.858 135.634 222.063 131.851C220.017 127.803 218.994 122.601 218.994 116.243V83.8486H242.074V112.06C242.074 116.2 242.728 119.097 244.016 120.748C244.643 121.55 245.451 122.192 246.374 122.621C247.298 123.05 248.309 123.253 249.327 123.216C250.68 123.233 252.01 122.861 253.157 122.143C254.486 121.216 255.5 119.906 256.065 118.389C256.895 116.18 257.278 113.828 257.192 111.47V83.8486H280.271V142.524H258.329V125.586L262.717 130.199C261.056 134.386 258.102 137.933 254.284 140.325C250.726 142.48 246.642 143.612 242.481 143.596Z" fill="black"/>
<path d="M190.24 134.078C186.27 138.905 181.227 143.088 172.536 143.088C158.802 143.088 146.893 131.611 146.893 113.053V112.839C146.893 93.9492 158.695 82.4717 172.429 82.4717C181.227 82.4717 186.378 86.4406 190.24 90.8385V83.7374H210.626V158.964H190.24V134.078ZM190.562 112.839V112.624C190.562 104.998 185.305 99.5271 178.76 99.5271C172.214 99.5271 166.85 104.89 166.85 112.624V112.839C166.85 120.562 172.214 126.033 178.76 126.033C185.305 126.033 190.562 120.562 190.562 112.839V112.839Z" fill="black"/>
</g>
<defs>
<clipPath id="clip0_1733_39613">
<rect width="525" height="102" fill="white" transform="translate(0 58)"/>
</clipPath>
</defs>
</svg>
