<svg width="119" height="119" viewBox="0 0 119 119" fill="none" xmlns="http://www.w3.org/2000/svg">
<path d="M6.23992 67.4614C-1.0225 64.793 -1.0225 54.5215 6.23992 51.8531L36.1119 40.8773C38.4021 40.0358 40.2071 38.2308 41.0486 35.9406L52.0244 6.06857C54.6928 -1.19384 64.9643 -1.19384 67.6327 6.06858L78.6086 35.9406C79.4501 38.2308 81.2551 40.0358 83.5453 40.8773L113.417 51.8531C120.68 54.5215 120.68 64.793 113.417 67.4614L83.5453 78.4372C81.2551 79.2787 79.4501 81.0837 78.6086 83.3739L67.6327 113.246C64.9643 120.508 54.6928 120.508 52.0244 113.246L41.0486 83.3739C40.2071 81.0837 38.4021 79.2787 36.1119 78.4372L6.23992 67.4614Z" fill="#8C46FF"/>
</svg>
